<?xml version="1.0" encoding="utf-8"?>
<!-- Generator: Adobe Illustrator 21.0.0, SVG Export Plug-In . SVG Version: 6.00 Build 0)  -->
<svg version="1.1" id="Artwork" xmlns="http://www.w3.org/2000/svg" xmlns:xlink="http://www.w3.org/1999/xlink" x="0px" y="0px"
	 viewBox="0 0 373.4 290.3" style="enable-background:new 0 0 373.4 290.3;" xml:space="preserve">
<style type="text/css">
	.st0{fill:#EF3340;}
</style>
<g>
	<path class="st0" d="M207.9,45.3c0,0-41.5-65.3-87.8-39.1c-57.4,32.6-4.8,134.9-4.8,134.9s-21.1-76,26.4-96.9
		C172.7,30.6,207.9,45.3,207.9,45.3z"/>
	<path class="st0" d="M179.8,2.9c0,0,113,23.3,99.2,93c-10.1,50.6-66.7,56.4-66.7,56.4s45.2-40.5,16.5-94.6
		C210.6,23.8,179.8,2.9,179.8,2.9z"/>
	<path class="st0" d="M266.5,141.3c0,0-59.7,90.9-109.7,52.3c-38.8-30-37.4-88.8-37.4-88.8s26.9,56.8,78.3,59.7
		C234.9,166.3,266.5,141.3,266.5,141.3z"/>
	<path class="st0" d="M149.2,129.4c0,0-49.4-49.2-5-74.4c30.6-17.4,72.5,3.1,72.5,3.1s-49.6-0.6-63.4,30.4
		C144.2,108.9,149.2,129.4,149.2,129.4z"/>
	<path class="st0" d="M170.9,79.6c0,0,54.8-31.8,56.2,10.7c1.4,36.2-30,62.4-30,62.4s27.1-35.3,8.9-57.9
		C194.4,80.8,170.9,79.6,170.9,79.6z"/>
	<path class="st0" d="M200,125.4c0,0-6.4,34.1-30.8,19.2c-19.8-12.2-10.1-47.3-10.1-47.3s1,29.5,20.5,35.7
		C189.5,136,200,125.4,200,125.4z"/>
	<path class="st0" d="M181,124.4c0,0,18.4-2.1,14.7-18.4c-3.7-16.7-31-15.3-31-15.3s18.6,6.2,21.1,19.8
		C187.2,118.6,181,124.4,181,124.4z"/>
</g>
<g>
	<path class="st0" d="M178,272.3c-1,0.8-2.3,1.2-3.9,1.2c-1.8,0-3.3-0.6-4.3-1.7c-1.1-1.1-1.6-2.7-1.7-4.9h18.5v-2
		c0-4.4-1.2-7.9-3.6-10.6c-2.4-2.6-5.4-4-9.1-4c-3.7,0-6.7,1.3-9.1,4c-2.4,2.6-3.6,6.2-3.6,10.6c0,4.4,1.2,7.9,3.6,10.6
		c2.4,2.6,5.6,4,9.4,4c4.8,0,8.5-2,11.3-6.1l-5.3-3.4C179.5,270.9,178.8,271.7,178,272.3z M169.8,257.9c1.1-1.1,2.4-1.6,4.1-1.6
		c1.8,0,3.2,0.5,4.3,1.5c1,1,1.6,2.4,1.8,4.1H168C168.2,260.3,168.8,258.9,169.8,257.9z"/>
	<path class="st0" d="M344.2,272.3c-1,0.8-2.3,1.2-3.9,1.2c-1.8,0-3.3-0.6-4.3-1.7c-1.1-1.1-1.6-2.7-1.7-4.9h18.5v-2
		c0-4.4-1.2-7.9-3.6-10.6c-2.4-2.6-5.4-4-9.1-4c-3.7,0-6.7,1.3-9.1,4c-2.4,2.6-3.6,6.2-3.6,10.6c0,4.4,1.2,7.9,3.6,10.6
		c2.4,2.6,5.6,4,9.4,4c4.8,0,8.5-2,11.3-6.1l-5.3-3.4C345.7,270.9,345,271.7,344.2,272.3z M336,257.9c1.1-1.1,2.4-1.6,4.1-1.6
		c1.8,0,3.2,0.5,4.3,1.5c1,1,1.6,2.4,1.8,4.1h-11.9C334.4,260.3,335,258.9,336,257.9z"/>
	<path class="st0" d="M25,278.6l-2.1-6H9l-2.1,6H0l13.1-36.4h6l13.1,36.4H25z M15.9,252.7L11,266.8h9.9L16,252.7H15.9z"/>
	<path class="st0" d="M36.5,278.6v-27.5h6.4v2.9h0.1c0.5-1,1.3-1.9,2.3-2.5s2.1-0.9,3.4-0.9c0.9,0,1.7,0.2,2.5,0.5l-1,6.5
		c-0.8-0.3-1.5-0.4-2.1-0.4c-3.2,0-4.7,2.1-4.7,6.3v15.1L36.5,278.6L36.5,278.6z"/>
	<path class="st0" d="M55.7,278.6v-37.9h6.8v13h0.1c0.1-0.1,0.2-0.2,0.3-0.4c0.1-0.2,0.4-0.4,0.8-0.8c0.4-0.4,0.9-0.7,1.4-1
		s1.2-0.6,2-0.8s1.7-0.4,2.6-0.4c3.4,0,6.2,1.3,8.4,4c2.2,2.7,3.4,6.2,3.4,10.5c0,4.4-1.1,8-3.2,10.6c-2.2,2.6-5.1,3.9-8.7,3.9
		c-1.5,0-2.8-0.3-4.1-0.9c-1.2-0.6-2-1.1-2.5-1.7l-0.7-0.9h-0.1v2.6H55.7z M62.5,262.3v5c0,1.7,0.5,3.1,1.6,4.2
		c1.1,1.2,2.5,1.7,4.3,1.7c2,0,3.5-0.7,4.6-2.2c1.1-1.4,1.6-3.5,1.6-6.3c0-2.8-0.5-4.9-1.6-6.3c-1.1-1.4-2.6-2.1-4.6-2.1
		c-1.8,0-3.3,0.6-4.3,1.7C63,259.3,62.5,260.7,62.5,262.3z"/>
	<rect x="117.4" y="251.1" class="st0" width="6.8" height="27.5"/>
	<path class="st0" d="M149.1,278.6V276H149c-0.2,0.2-0.4,0.6-0.8,0.9c-0.3,0.4-1.1,0.9-2.4,1.5c-1.3,0.6-2.6,1-4.1,1
		c-3.6,0-6.5-1.3-8.7-3.9c-2.2-2.6-3.2-6.2-3.2-10.6c0-4.5,1.2-8,3.5-10.6c2.4-2.6,5.1-3.9,8.3-3.9c1.5,0,2.8,0.3,3.9,0.9
		c1.2,0.6,1.9,1.1,2.4,1.7l0.7,0.9h0.1v-13h6.8v37.9H149.1z M148.7,267.4v-5c0-1.7-0.5-3.1-1.6-4.2c-1.1-1.1-2.5-1.7-4.3-1.7
		c-2,0-3.5,0.7-4.6,2.1c-1.1,1.4-1.6,3.5-1.6,6.3c0,2.8,0.5,4.9,1.6,6.3c1.1,1.4,2.6,2.2,4.6,2.2c1.8,0,3.3-0.6,4.3-1.7
		C148.2,270.4,148.7,269,148.7,267.4z"/>
	<path class="st0" d="M192.2,278.6v-27.5h6.4v2.9h0.1c0.5-1,1.3-1.9,2.3-2.5s2.1-0.9,3.4-0.9c0.9,0,1.7,0.2,2.5,0.5l-1,6.5
		c-0.8-0.3-1.5-0.4-2.1-0.4c-3.2,0-4.7,2.1-4.7,6.3v15.1L192.2,278.6L192.2,278.6z"/>
	<path class="st0" d="M211.5,290.3v-39.2h6.4v2.6h0.1c0.1-0.1,0.2-0.2,0.3-0.4c0.1-0.2,0.4-0.4,0.8-0.8c0.4-0.4,0.9-0.7,1.4-1
		c0.5-0.3,1.2-0.6,2.1-0.8c0.9-0.2,1.8-0.4,2.8-0.4c3.3,0,6.1,1.3,8.5,3.9c2.4,2.6,3.7,6.2,3.7,10.6c0,4.5-1.2,8.1-3.5,10.6
		c-2.4,2.6-5.2,3.9-8.6,3.9c-1,0-1.9-0.1-2.8-0.4c-0.8-0.2-1.5-0.5-2.1-0.9c-0.5-0.3-1-0.7-1.4-1c-0.4-0.3-0.7-0.6-0.8-0.9l-0.2-0.4
		h-0.1v14.3L211.5,290.3L211.5,290.3z M218.3,262v5.7c0,1.6,0.5,2.9,1.6,4c1.1,1.1,2.5,1.6,4.3,1.6c2,0,3.6-0.7,4.9-2.2
		c1.3-1.5,1.9-3.5,1.9-6.3c0-2.7-0.6-4.8-1.9-6.3c-1.2-1.5-2.9-2.2-4.9-2.2c-1.8,0-3.2,0.5-4.3,1.6
		C218.8,259.1,218.3,260.5,218.3,262z"/>
	<path class="st0" d="M259.1,278.6V276H259c-0.1,0.1-0.2,0.2-0.3,0.4c-0.1,0.2-0.4,0.4-0.8,0.8c-0.4,0.4-0.9,0.7-1.4,1
		c-0.5,0.3-1.2,0.6-2.1,0.8c-0.9,0.2-1.9,0.4-2.9,0.4c-3.3,0-5.8-0.8-7.5-2.4c-1.6-1.6-2.5-3.5-2.5-5.8c0-2.4,0.7-4.2,2.1-5.5
		c1.4-1.2,3.8-2.3,7.2-3.1c3.2-0.8,5.1-1.4,5.9-1.8c0.8-0.5,1.2-1.1,1.2-1.9s-0.4-1.5-1.2-2.1c-0.8-0.6-1.9-0.8-3.5-0.8
		c-1.8,0-3.2,0.4-3.9,1.2c-0.8,0.8-1.4,1.9-1.9,3.3l-5.6-2.3c0.7-2.3,1.9-4.2,3.8-5.7c1.9-1.5,4.4-2.2,7.5-2.2
		c3.4,0,6.1,0.9,8.3,2.6c2.1,1.8,3.2,4.5,3.2,8.2v17.5H259.1z M252.3,267.4c-1.7,0.4-2.9,0.9-3.4,1.5c-0.5,0.6-0.8,1.2-0.8,1.9
		c0,1.9,1.4,2.8,4.1,2.8c2,0,3.6-0.4,4.6-1.2c1-0.8,1.5-1.7,1.5-2.9v-4.8h-0.1c-0.1,0.3-0.3,0.5-0.4,0.7c-0.2,0.2-0.7,0.4-1.6,0.8
		C255.2,266.6,254,267,252.3,267.4z"/>
	<path class="st0" d="M271.7,278.6v-27.5h6.4v2.9h0.1c0.5-1,1.3-1.9,2.3-2.5s2.1-0.9,3.4-0.9c0.9,0,1.7,0.2,2.5,0.5l-1,6.5
		c-0.8-0.3-1.5-0.4-2.1-0.4c-3.2,0-4.7,2.1-4.7,6.3v15.1L271.7,278.6L271.7,278.6z"/>
	<path class="st0" d="M295,268.8v-12h-4.3v-5.7h4.4v-6.8h6.4v6.8h7v5.7h-6.9v11.4c0,1.5,0.2,2.5,0.7,3.1c0.5,0.6,1.5,0.9,3,0.9h2.2
		v6.5h-2.9c-3.7,0-6.3-0.8-7.6-2.3C295.7,274.7,295,272.3,295,268.8z"/>
	<rect x="315" y="251.1" class="st0" width="6.8" height="27.5"/>
	<path class="st0" d="M359.8,268.8v-12h-4.3v-5.7h4.4v-6.8h6.4v6.8h7v5.7h-6.9v11.4c0,1.5,0.2,2.5,0.7,3.1c0.5,0.6,1.5,0.9,3,0.9
		h2.2v6.5h-2.9c-3.7,0-6.3-0.8-7.6-2.3C360.5,274.7,359.8,272.3,359.8,268.8z"/>
	<circle class="st0" cx="120.7" cy="244.6" r="3.8"/>
	<circle class="st0" cx="318.3" cy="244.6" r="3.8"/>
	<path class="st0" d="M103.1,272.3c-1,0.8-2.3,1.2-3.9,1.2c-1.8,0-3.3-0.6-4.3-1.7c-1.1-1.1-1.6-2.7-1.7-4.9h18.5v-2
		c0-4.4-1.2-7.9-3.6-10.6c-2.4-2.6-5.4-4-9.1-4c-3.7,0-6.7,1.3-9.1,4c-2.4,2.6-3.6,6.2-3.6,10.6c0,4.4,1.2,7.9,3.6,10.6
		c2.4,2.6,5.6,4,9.4,4c4.8,0,8.5-2,11.3-6.1l-5.3-3.4C104.7,270.9,103.9,271.7,103.1,272.3z M95,257.9c1.1-1.1,2.4-1.6,4.1-1.6
		c1.8,0,3.2,0.5,4.3,1.5c1,1,1.6,2.4,1.8,4.1H93.2C93.3,260.3,93.9,258.9,95,257.9z"/>
</g>
</svg>
